<?xml version="1.0" standalone="no"?>
<!DOCTYPE svg PUBLIC "-//W3C//DTD SVG 20010904//EN"
 "http://www.w3.org/TR/2001/REC-SVG-20010904/DTD/svg10.dtd">
<svg version="1.0" xmlns="http://www.w3.org/2000/svg"
 width="1644.000000pt" height="1263.000000pt" viewBox="0 0 1644.000000 1263.000000"
 preserveAspectRatio="xMidYMid meet">
<metadata>
Created by potrace 1.13, written by Peter Selinger 2001-2015
</metadata>
<g transform="translate(0.000000,1263.000000) scale(0.100000,-0.100000)"
fill="#000000" stroke="none">
<path d="M3218 12204 c-29 -15 -50 -49 -62 -96 -6 -25 -4 -28 18 -28 19 0 26
7 31 29 3 16 15 37 26 47 26 23 82 23 109 -1 43 -39 11 -115 -50 -115 -23 0
-30 -5 -30 -19 0 -14 10 -20 39 -25 71 -11 102 -77 61 -129 -43 -54 -132 -42
-159 21 -11 23 -21 32 -38 32 -20 0 -23 -3 -17 -27 17 -69 62 -103 137 -103
89 0 147 50 147 128 0 37 -5 50 -32 76 l-33 31 23 22 c30 30 31 100 1 132 -40
42 -118 54 -171 25z"/>
<path d="M3582 12200 c-51 -31 -66 -77 -66 -200 0 -115 12 -151 60 -189 38
-30 121 -29 159 1 43 34 55 75 55 190 0 127 -20 181 -74 203 -49 21 -95 19
-134 -5z m101 -31 c12 -6 29 -20 37 -32 20 -31 25 -191 8 -242 -26 -78 -105
-86 -140 -15 -13 25 -18 59 -18 123 0 99 17 152 52 167 31 12 33 12 61 -1z"/>
<path d="M13668 12164 c-44 -23 -71 -87 -76 -179 -7 -137 30 -214 111 -229
115 -22 202 77 165 189 -26 77 -123 109 -197 64 l-34 -20 6 42 c10 75 62 120
121 105 15 -4 32 -18 38 -31 7 -16 19 -25 35 -25 33 0 30 34 -6 71 -25 25 -37
29 -83 29 -29 -1 -65 -8 -80 -16z m105 -186 c35 -18 46 -40 47 -86 0 -56 -33
-92 -85 -92 -82 0 -116 100 -56 161 31 31 59 36 94 17z"/>
<path d="M3973 12090 c-27 -16 -33 -17 -33 -5 0 9 -10 15 -25 15 l-25 0 0
-150 0 -150 24 0 c24 0 24 1 28 111 3 107 4 112 31 135 33 29 68 31 90 6 14
-15 17 -41 17 -135 l0 -117 25 0 25 0 0 103 c0 122 11 148 63 161 30 8 40 6
57 -9 18 -16 20 -30 20 -137 l0 -118 25 0 25 0 0 130 c0 126 -1 132 -25 155
-33 34 -103 35 -141 2 l-27 -23 -23 23 c-29 29 -86 31 -131 3z"/>
<path d="M4513 12090 c-27 -16 -33 -17 -33 -5 0 9 -10 15 -25 15 l-25 0 0
-150 0 -150 24 0 c24 0 24 1 28 111 3 107 4 112 31 135 33 29 68 31 90 6 14
-15 17 -41 17 -135 l0 -117 25 0 25 0 0 103 c0 122 11 148 63 161 30 8 40 6
57 -9 18 -16 20 -30 20 -137 l0 -118 25 0 25 0 0 130 c0 126 -1 132 -25 155
-33 34 -103 35 -141 2 l-27 -23 -23 23 c-29 29 -86 31 -131 3z"/>
<path d="M14065 12065 c-16 -9 -33 -22 -37 -28 -5 -8 -8 -4 -8 11 0 17 -6 22
-25 22 l-25 0 0 -155 0 -155 25 0 25 0 0 110 c0 104 1 112 25 135 31 32 89 35
105 6 5 -11 10 -72 10 -135 l0 -116 25 0 25 0 0 109 c0 94 3 112 21 135 16 20
29 26 59 26 54 0 60 -16 60 -154 l0 -116 25 0 25 0 0 129 c0 122 -2 132 -23
157 -31 36 -101 40 -145 7 -29 -21 -29 -21 -49 -2 -27 27 -81 34 -118 14z"/>
<path d="M14605 12065 c-16 -9 -33 -22 -37 -28 -5 -8 -8 -4 -8 11 0 17 -6 22
-25 22 l-25 0 0 -155 0 -155 25 0 25 0 0 110 c0 104 1 112 25 135 31 32 89 35
105 6 5 -11 10 -72 10 -135 l0 -116 25 0 25 0 0 109 c0 94 3 112 21 135 16 20
29 26 59 26 54 0 60 -16 60 -154 l0 -116 25 0 25 0 0 129 c0 122 -2 132 -23
157 -31 36 -101 40 -145 7 -29 -21 -29 -21 -49 -2 -27 27 -81 34 -118 14z"/>
<path d="M1328 11564 c-12 -12 -10 -1334 2 -1334 7 0 10 213 10 620 l0 620 23
-5 c12 -3 51 -10 87 -15 36 -6 79 -13 95 -16 75 -13 75 -12 75 12 l0 24 2221
0 2220 0 -3 -22 c-3 -26 5 -27 107 -9 33 6 79 13 102 16 23 2 48 6 55 7 10 2
13 -55 13 -285 0 -158 3 -287 8 -287 4 0 6 154 5 343 -1 188 -3 323 -5 300 -5
-50 6 -49 -160 -24 -119 17 -123 17 -123 -1 0 -17 -74 -18 -2220 -18 -2153 0
-2220 1 -2220 18 0 17 -5 18 -52 11 -29 -4 -71 -10 -93 -13 -22 -3 -61 -8 -87
-12 l-47 -7 -3 43 c-2 23 -6 38 -10 34z"/>
<path d="M13788 11554 c-5 -4 -8 -24 -8 -44 l0 -37 -82 14 c-46 8 -96 16 -113
19 -61 11 -70 9 -75 -11 -6 -18 -15 -20 -125 -22 -162 -3 -165 -6 -10 -13 115
-4 130 -7 130 -22 0 -10 2 -19 5 -19 5 -2 103 8 160 16 14 2 43 6 65 9 l40 5
-3 -5187 -3 -5187 44 -43 44 -43 434 1 434 0 43 43 43 42 -3 5188 c-3 4605 -1
5187 12 5187 8 0 70 -9 138 -19 l122 -18 0 24 c0 23 0 23 132 23 72 0 129 3
125 6 -3 3 -62 6 -131 5 l-126 -2 0 24 c0 27 4 26 -105 8 -33 -6 -77 -12 -97
-15 -20 -2 -46 -7 -58 -11 -18 -6 -20 -2 -20 40 0 28 -4 44 -10 40 -5 -3 -10
-24 -10 -46 l0 -39 -489 0 -490 0 -3 46 c-2 25 -6 42 -10 38z m992 -425 l0
-331 -35 31 -36 31 -421 0 -422 0 -33 -32 -33 -32 0 332 0 332 490 0 490 0 0
-331z m-672 -5206 l-3 -4898 -101 -3 -100 -3 -47 36 -47 36 0 4827 0 4827 42
37 43 37 108 1 107 0 -2 -4897z m624 4860 l38 -37 0 -4826 0 -4827 -38 -34
-38 -34 -277 3 -277 3 0 4834 0 4835 210 0 210 0 0 55 0 55 -207 3 c-199 2
-196 3 67 5 l274 2 38 -37z m-212 -23 c0 -19 -7 -20 -190 -20 -152 0 -190 3
-190 13 0 8 3 17 7 20 3 4 89 7 190 7 176 0 183 -1 183 -20z"/>
<path d="M3576 10863 c-1 -1 -67 -5 -147 -8 -245 -9 -529 -32 -739 -60 -63 -8
-140 -17 -170 -20 -93 -10 -170 -21 -225 -30 -36 -7 -79 -14 -115 -19 -19 -3
-44 -8 -55 -10 -267 -60 -307 -74 -435 -157 -190 -123 -332 -347 -370 -582
-10 -61 -16 -5649 -6 -5678 3 -8 7 -63 10 -124 4 -99 9 -143 32 -295 4 -25 8
-56 9 -70 1 -14 5 -34 8 -45 3 -11 9 -33 12 -50 8 -49 14 -76 20 -95 3 -10 8
-27 10 -37 2 -10 13 -58 24 -108 12 -49 24 -100 26 -111 3 -12 12 -38 20 -58
8 -20 13 -36 10 -36 -2 0 4 -23 15 -50 11 -27 18 -50 16 -50 -15 0 135 -379
222 -562 69 -143 49 -107 401 -718 145 -250 266 -461 269 -470 3 -8 27 -44 53
-80 138 -188 326 -304 558 -341 40 -6 343 -9 820 -7 416 1 1468 3 2339 3 1378
0 1705 4 1545 17 -21 2 -37 8 -36 14 1 6 4 30 7 55 8 59 14 105 22 162 5 43 4
47 -15 47 l-21 0 0 4636 0 4636 21 -5 c19 -5 20 -3 14 41 -3 26 -8 63 -10 82
-13 98 -16 116 -21 133 -4 14 1 17 35 17 23 0 41 5 41 10 0 7 -583 10 -1727
10 -951 0 -1781 2 -1846 5 -120 6 -617 12 -621 8z m624 -44 c457 -19 1127 -90
1369 -145 36 -8 90 -20 120 -25 67 -12 183 -60 248 -101 180 -117 315 -301
369 -503 18 -68 19 -167 19 -2915 0 -3051 2 -2952 -51 -3295 -36 -236 -115
-552 -187 -750 -87 -242 -233 -560 -331 -725 -121 -204 -526 -912 -526 -921 0
-5 -4 -9 -10 -9 -5 0 -16 -12 -24 -27 -22 -43 -102 -133 -170 -190 -75 -64
-214 -136 -321 -165 -79 -22 -86 -22 -870 -22 -787 0 -790 0 -870 22 -155 43
-280 117 -387 228 -59 61 -84 94 -112 144 -11 22 -130 227 -263 457 -132 230
-247 430 -254 445 -7 16 -16 28 -20 28 -12 0 -213 413 -273 561 -49 123 -130
369 -170 524 -63 241 -123 621 -134 847 -4 84 -5 1406 -2 2938 l6 2785 26 70
c80 215 177 347 337 455 71 48 207 107 261 114 19 2 60 11 90 20 80 22 262 51
540 85 592 72 1037 92 1590 70z m3464 -26 c-2 -21 -7 -54 -10 -73 -2 -19 -9
-59 -14 -89 -14 -75 -13 -80 10 -74 20 5 20 0 20 -4631 0 -4030 -2 -4636 -14
-4636 -24 0 -28 -17 -17 -77 6 -32 13 -74 15 -93 3 -19 8 -52 10 -73 l6 -37
-1465 0 c-806 0 -1465 2 -1465 4 0 4 97 40 110 41 24 1 200 119 246 163 94 93
148 175 413 637 139 242 264 456 276 476 77 120 281 573 335 744 7 22 16 45
20 50 4 6 15 37 24 70 9 33 21 76 27 95 5 19 12 46 15 59 3 13 10 34 16 45 6
12 10 22 9 24 -2 2 16 92 25 127 19 72 33 137 40 190 2 22 7 56 11 75 3 19 7
42 8 50 1 8 5 31 8 50 8 38 12 85 27 295 10 143 14 5731 4 5790 -10 59 -12 70
-14 70 -1 0 -3 5 -13 45 -19 74 -97 215 -162 292 -112 134 -288 242 -460 284
-28 7 -56 13 -86 18 -19 3 -45 8 -59 11 -14 3 -41 8 -60 11 -19 3 -46 7 -60 9
-14 2 -45 7 -70 10 -73 9 -103 14 -135 19 -46 8 -96 16 -145 22 -25 3 -56 7
-70 8 -14 2 -61 7 -105 11 -44 4 -116 10 -160 15 -44 4 594 8 1417 9 l1498 1
-6 -37z"/>
<path d="M1888 8566 c-100 -41 -162 -108 -197 -214 -21 -62 -21 -70 -19 -1040
l3 -977 26 -56 c54 -114 143 -181 265 -199 97 -14 3661 -14 3737 0 124 23 213
87 263 188 l29 57 3 975 c2 694 0 990 -8 1027 -24 109 -118 209 -231 244 -59
18 -120 19 -1937 19 l-1877 0 -57 -24z m1970 -16 c2074 -1 1900 6 1993 -77 63
-58 99 -118 107 -185 4 -29 7 -469 7 -978 0 -898 -1 -927 -20 -985 -28 -84
-106 -162 -190 -190 -59 -20 -87 -20 -1930 -20 -1028 0 -1881 3 -1893 7 -74
22 -151 90 -194 171 l-23 42 -2 980 c-3 1113 -9 1033 81 1133 58 63 163 118
204 106 7 -2 844 -4 1860 -4z"/>
<path d="M1911 5750 c-97 -35 -157 -96 -192 -196 -19 -52 -20 -77 -17 -288 3
-217 4 -234 27 -283 13 -30 45 -73 76 -102 90 -85 57 -82 861 -79 694 3 699 3
739 25 51 27 111 87 136 134 10 20 23 65 29 100 13 84 13 360 -1 434 -21 115
-86 201 -187 248 -47 22 -51 22 -732 24 -656 2 -687 2 -739 -17z m1455 -50
c71 -37 149 -123 161 -178 9 -41 11 -458 2 -482 -37 -103 -95 -161 -199 -199
-8 -3 -321 -6 -695 -6 l-680 0 -45 24 c-64 33 -118 88 -146 146 -23 48 -24 59
-24 271 0 162 3 224 13 233 10 11 9 12 -3 6 -11 -6 -10 -3 3 12 9 11 14 23 10
26 -3 4 -1 7 5 7 6 0 9 7 6 15 -8 21 97 124 136 131 17 4 33 11 36 15 3 5 309
9 683 9 l677 0 60 -30z"/>
<path d="M4340 5761 c-88 -27 -165 -95 -204 -180 -20 -43 -21 -62 -21 -291 l1
-245 30 -65 c36 -76 90 -129 160 -156 46 -18 86 -19 754 -19 l705 0 51 27 c60
32 118 93 147 156 20 44 21 63 22 292 0 243 0 245 -26 300 -37 80 -72 115
-147 152 l-67 33 -690 2 c-379 1 -701 -2 -715 -6z m1446 -61 c73 -35 116 -82
144 -158 18 -46 20 -78 20 -256 0 -150 -4 -215 -15 -253 -20 -67 -83 -138
-154 -171 l-56 -27 -680 0 -680 0 -50 29 c-71 41 -93 63 -129 131 l-31 60 -3
218 c-4 254 3 287 74 366 38 42 97 78 142 87 8 1 15 4 17 6 2 2 304 2 671 0
l667 -2 63 -30z"/>
<path d="M8130 6392 c-57 -28 -83 -94 -84 -206 0 -142 44 -206 142 -206 85 0
142 56 142 140 0 116 -125 179 -215 108 l-26 -21 6 39 c15 84 68 135 123 116
15 -4 33 -21 40 -35 9 -18 21 -27 38 -27 28 0 28 0 10 45 -26 61 -106 83 -176
47z m119 -201 c27 -27 36 -83 19 -118 -26 -55 -104 -67 -144 -21 -28 30 -25
100 5 132 31 33 91 36 120 7z"/>
<path d="M8484 6395 c-56 -29 -69 -65 -69 -200 0 -135 12 -173 65 -200 37 -19
103 -19 139 0 50 25 66 75 66 200 0 116 -10 149 -54 189 -28 25 -107 31 -147
11z m119 -54 c49 -47 43 -253 -8 -298 -29 -26 -43 -28 -79 -12 -37 17 -51 62
-51 169 0 76 4 102 18 123 31 48 81 55 120 18z"/>
<path d="M8867 6280 c-30 -24 -37 -25 -37 -5 0 8 -9 15 -20 15 -19 0 -20 -7
-20 -150 l0 -150 25 0 25 0 0 104 c0 121 3 132 41 151 38 20 55 19 79 -5 18
-18 20 -33 20 -135 l0 -115 25 0 25 0 0 114 c0 112 1 115 26 135 34 26 68 27
94 1 18 -18 20 -33 20 -135 l0 -115 25 0 25 0 0 114 c0 128 -10 168 -46 185
-40 18 -98 13 -127 -10 l-27 -20 -22 20 c-29 28 -96 28 -131 1z"/>
<path d="M9407 6280 c-30 -24 -37 -25 -37 -5 0 8 -9 15 -20 15 -19 0 -20 -7
-20 -150 l0 -150 25 0 25 0 0 104 c0 121 3 132 41 151 38 20 55 19 79 -5 18
-18 20 -33 20 -135 l0 -115 25 0 25 0 0 114 c0 112 1 115 26 135 34 26 68 27
94 1 18 -18 20 -33 20 -135 l0 -115 25 0 25 0 0 114 c0 128 -10 168 -46 185
-40 18 -98 13 -127 -10 l-27 -20 -22 20 c-29 28 -96 28 -131 1z"/>
</g>
</svg>
