<svg version="1" xmlns="http://www.w3.org/2000/svg" width="1634.667" height="1609.333" viewBox="0 0 1226.000000 1207.000000"><path d="M258.8 26.6c-2.9 1.5-5 4.9-6.2 9.6-.6 2.5-.4 2.8 1.8 2.8 1.9 0 2.6-.7 3.1-2.9.3-1.6 1.5-3.7 2.6-4.7 2.6-2.3 8.2-2.3 10.9.1 4.3 3.9 1.1 11.5-5 11.5-2.3 0-3 .5-3 1.9s1 2 3.9 2.5c7.1 1.1 10.2 7.7 6.1 12.9-4.3 5.4-13.2 4.2-15.9-2.1-1.1-2.3-2.1-3.2-3.8-3.2-2 0-2.3.3-1.7 2.7 1.7 6.9 6.2 10.3 13.7 10.3 8.9 0 14.7-5 14.7-12.8 0-3.7-.5-5-3.2-7.6l-3.3-3.1 2.3-2.2c3-3 3.1-10 .1-13.2-4-4.2-11.8-5.4-17.1-2.5zM295.2 27c-5.1 3.1-6.6 7.7-6.6 20 0 11.5 1.2 15.1 6 18.9 3.8 3 12.1 2.9 15.9-.1 4.3-3.4 5.5-7.5 5.5-19 0-12.7-2-18.1-7.4-20.3-4.9-2.1-9.5-1.9-13.4.5zm10.1 3.1c1.2.6 2.9 2 3.7 3.2 2 3.1 2.5 19.1.8 24.2-2.6 7.8-10.5 8.6-14 1.5-1.3-2.5-1.8-5.9-1.8-12.3 0-9.9 1.7-15.2 5.2-16.7 3.1-1.2 3.3-1.2 6.1.1zM1020.8 28.6c-4.4 2.3-7.1 8.7-7.6 17.9-.7 13.7 3 21.4 11.1 22.9 11.5 2.2 20.2-7.7 16.5-18.9-2.6-7.7-12.3-10.9-19.7-6.4l-3.4 2 .6-4.2c1-7.5 6.2-12 12.1-10.5 1.5.4 3.2 1.8 3.8 3.1.7 1.6 1.9 2.5 3.5 2.5 3.3 0 3-3.4-.6-7.1-2.5-2.5-3.7-2.9-8.3-2.9-2.9.1-6.5.8-8 1.6zm10.5 18.6c3.5 1.8 4.6 4 4.7 8.6 0 5.6-3.3 9.2-8.5 9.2-8.2 0-11.6-10-5.6-16.1 3.1-3.1 5.9-3.6 9.4-1.7zM334.3 38c-2.7 1.6-3.3 1.7-3.3.5 0-.9-1-1.5-2.5-1.5H326v30h2.4c2.4 0 2.4-.1 2.8-11.1.3-10.7.4-11.2 3.1-13.5 3.3-2.9 6.8-3.1 9-.6 1.4 1.5 1.7 4.1 1.7 13.5V67h5V56.7c0-12.2 1.1-14.8 6.3-16.1 3-.8 4-.6 5.7.9 1.8 1.6 2 3 2 13.7V67h5V54c0-12.6-.1-13.2-2.5-15.5-3.3-3.4-10.3-3.5-14.1-.2l-2.7 2.3-2.3-2.3c-2.9-2.9-8.6-3.1-13.1-.3zM388.3 38c-2.7 1.6-3.3 1.7-3.3.5 0-.9-1-1.5-2.5-1.5H380v30h2.4c2.4 0 2.4-.1 2.8-11.1.3-10.7.4-11.2 3.1-13.5 3.3-2.9 6.8-3.1 9-.6 1.4 1.5 1.7 4.1 1.7 13.5V67h5V56.7c0-12.2 1.1-14.8 6.3-16.1 3-.8 4-.6 5.7.9 1.8 1.6 2 3 2 13.7V67h5V54c0-12.6-.1-13.2-2.5-15.5-3.3-3.4-10.3-3.5-14.1-.2l-2.7 2.3-2.3-2.3c-2.9-2.9-8.6-3.1-13.1-.3zM1060.5 38.5c-1.6.9-3.3 2.2-3.7 2.8-.5.8-.8.4-.8-1.1 0-1.7-.6-2.2-2.5-2.2h-2.5v31h5V58c0-10.4.1-11.2 2.5-13.5 3.1-3.2 8.9-3.5 10.5-.6.5 1.1 1 7.2 1 13.5V69h5V58.1c0-9.4.3-11.2 2.1-13.5 1.6-2 2.9-2.6 5.9-2.6 5.4 0 6 1.6 6 15.4V69h5V56.1c0-12.2-.2-13.2-2.3-15.7-3.1-3.6-10.1-4-14.5-.7-2.9 2.1-2.9 2.1-4.9.2-2.7-2.7-8.1-3.4-11.8-1.4zM1114.5 38.5c-1.6.9-3.3 2.2-3.7 2.8-.5.8-.8.4-.8-1.1 0-1.7-.6-2.2-2.5-2.2h-2.5v31h5V58c0-10.4.1-11.2 2.5-13.5 3.1-3.2 8.9-3.5 10.5-.6.5 1.1 1 7.2 1 13.5V69h5V58.1c0-9.4.3-11.2 2.1-13.5 1.6-2 2.9-2.6 5.9-2.6 5.4 0 6 1.6 6 15.4V69h5V56.1c0-12.2-.2-13.2-2.3-15.7-3.1-3.6-10.1-4-14.5-.7-2.9 2.1-2.9 2.1-4.9.2-2.7-2.7-8.1-3.4-11.8-1.4zM1032.8 89.6c-.5.4-.8 2.4-.8 4.4v3.7l-8.2-1.4c-4.6-.8-9.6-1.6-11.3-1.9-6.1-1.1-7-.9-7.5 1.1-.6 1.8-1.5 2-12.5 2.2-16.2.3-16.5.6-1 1.3 11.5.4 13 .7 13 2.2 0 1 .2 1.9.5 1.9.5.2 10.3-.8 16-1.6 1.4-.2 4.3-.6 6.5-.9l4-.5-.3 518.7-.3 518.7 4.4 4.3 4.4 4.3 43.4-.1h43.4l4.3-4.3 4.3-4.2-.3-518.8c-.3-460.5-.1-518.7 1.2-518.7.8 0 7 .9 13.8 1.9l12.2 1.8v-2.4c0-2.3 0-2.3 13.2-2.3 7.2 0 12.9-.3 12.5-.6-.3-.3-6.2-.6-13.1-.5l-12.6.2v-2.4c0-2.7.4-2.6-10.5-.8-3.3.6-7.7 1.2-9.7 1.5-2 .2-4.6.7-5.8 1.1-1.8.6-2 .2-2-4 0-2.8-.4-4.4-1-4-.5.3-1 2.4-1 4.6V98h-97.9l-.3-4.6c-.2-2.5-.6-4.2-1-3.8zm99.2 42.5v33.1l-3.5-3.1-3.6-3.1H1040.6l-3.3 3.2-3.3 3.2V99h98v33.1zm-67.2 520.6l-.3 489.8-10.1.3-10 .3-4.7-3.6-4.7-3.6V170.5l4.2-3.7 4.3-3.7 10.8-.1h10.7l-.2 489.7zm62.4-486l3.8 3.7v965.3l-3.8 3.4-3.8 3.4-27.7-.3-27.7-.3V175h42v-11l-20.7-.3c-19.9-.2-19.6-.3 6.7-.5l27.4-.2 3.8 3.7zM1106 169c0 1.9-.7 2-19 2-15.2 0-19-.3-19-1.3 0-.8.3-1.7.7-2 .3-.4 8.9-.7 19-.7 17.6 0 18.3.1 18.3 2zM69.8 90.6c-1.2 1.2-1 133.4.2 133.4.7 0 1-21.3 1-62v-62l2.3.5c1.2.3 5.1 1 8.7 1.5 3.6.6 7.9 1.3 9.5 1.6 7.5 1.3 7.5 1.2 7.5-1.2V100h444.1l-.3 2.2c-.3 2.6.5 2.7 10.7.9 3.3-.6 7.9-1.3 10.2-1.6 2.3-.2 4.8-.6 5.5-.7 1-.2 1.3 5.5 1.3 28.5 0 15.8.3 28.7.8 28.7.4 0 .6-15.4.5-34.3-.1-18.8-.3-32.3-.5-30-.5 5 .6 4.9-16 2.4-11.9-1.7-12.3-1.7-12.3.1 0 1.7-7.4 1.8-222 1.8-215.3 0-222-.1-222-1.8s-.5-1.8-5.2-1.1c-2.9.4-7.1 1-9.3 1.3-2.2.3-6.1.8-8.7 1.2l-4.7.7-.3-4.3c-.2-2.3-.6-3.8-1-3.4z"/><path d="M294.6 160.7c-.1.1-6.7.5-14.7.8-24.5.9-52.9 3.2-73.9 6-6.3.8-14 1.7-17 2-9.3 1-17 2.1-22.5 3-3.6.7-7.9 1.4-11.5 1.9-1.9.3-4.4.8-5.5 1-26.7 6-30.7 7.4-43.5 15.7-19 12.3-33.2 34.7-37 58.2-1 6.1-1.6 564.9-.6 567.8.3.8.7 6.3 1 12.4.4 9.9.9 14.3 3.2 29.5.4 2.5.8 5.6.9 7 .1 1.4.5 3.4.8 4.5.3 1.1.9 3.3 1.2 5 .8 4.9 1.4 7.6 2 9.5.3 1 .8 2.7 1 3.7.2 1 1.3 5.8 2.4 10.8 1.2 4.9 2.4 10 2.6 11.1.3 1.2 1.2 3.8 2 5.8s1.3 3.6 1 3.6c-.2 0 .4 2.3 1.5 5s1.8 5 1.6 5c-1.5 0 13.5 37.9 22.2 56.2 6.9 14.3 4.9 10.7 40.1 71.8 14.5 25 26.6 46.1 26.9 47 .3.8 2.7 4.4 5.3 8 13.8 18.8 32.6 30.4 55.8 34.1 4 .6 34.3.9 82 .7 41.6-.1 146.8-.3 233.9-.3 137.8 0 170.5-.4 154.5-1.7-2.1-.2-3.7-.8-3.6-1.4.1-.6.4-3 .7-5.5.8-5.9 1.4-10.5 2.2-16.2.5-4.3.4-4.7-1.5-4.7H706V190.8l2.1.5c1.9.5 2 .3 1.4-4.1-.3-2.6-.8-6.3-1-8.2-1.3-9.8-1.6-11.6-2.1-13.3-.4-1.4.1-1.7 3.5-1.7 2.3 0 4.1-.5 4.1-1 0-.7-58.3-1-172.7-1-95.1 0-178.1-.2-184.6-.5-12-.6-61.7-1.2-62.1-.8zm62.4 4.4c45.7 1.9 112.7 9 136.9 14.5 3.6.8 9 2 12 2.5 6.7 1.2 18.3 6 24.8 10.1 18 11.7 31.5 30.1 36.9 50.3 1.8 6.8 1.9 16.7 1.9 291.5 0 305.1.2 295.2-5.1 329.5-3.6 23.6-11.5 55.2-18.7 75-8.7 24.2-23.3 56-33.1 72.5-12.1 20.4-52.6 91.2-52.6 92.1 0 .5-.4.9-1 .9-.5 0-1.6 1.2-2.4 2.7-2.2 4.3-10.2 13.3-17 19-7.5 6.4-21.4 13.6-32.1 16.5-7.9 2.2-8.6 2.2-87 2.2-78.7 0-79 0-87-2.2-15.5-4.3-28-11.7-38.7-22.8-5.9-6.1-8.4-9.4-11.2-14.4-1.1-2.2-13-22.7-26.3-45.7-13.2-23-24.7-43-25.4-44.5-.7-1.6-1.6-2.8-2-2.8-1.2 0-21.3-41.3-27.3-56.1-4.9-12.3-13-36.9-17-52.4-6.3-24.1-12.3-62.1-13.4-84.7-.4-8.4-.5-140.6-.2-293.8l.6-278.5 2.6-7c8-21.5 17.7-34.7 33.7-45.5 7.1-4.8 20.7-10.7 26.1-11.4 1.9-.2 6-1.1 9-2 8-2.2 26.2-5.1 54-8.5 59.2-7.2 103.7-9.2 159-7zm346.4 2.6c-.2 2.1-.7 5.4-1 7.3-.2 1.9-.9 5.9-1.4 8.9-1.4 7.5-1.3 8 1 7.4 2-.5 2 0 2 463.1 0 403-.2 463.6-1.4 463.6-2.4 0-2.8 1.7-1.7 7.7.6 3.2 1.3 7.4 1.5 9.3.3 1.9.8 5.2 1 7.3l.6 3.7H557.5c-80.6 0-146.5-.2-146.5-.4 0-.4 9.7-4 11-4.1 2.4-.1 20-11.9 24.6-16.3 9.4-9.3 14.8-17.5 41.3-63.7 13.9-24.2 26.4-45.6 27.6-47.6 7.7-12 28.1-57.3 33.5-74.4.7-2.2 1.6-4.5 2-5 .4-.6 1.5-3.7 2.4-7 .9-3.3 2.1-7.6 2.7-9.5.5-1.9 1.2-4.6 1.5-5.9.3-1.3 1-3.4 1.6-4.5.6-1.2 1-2.2.9-2.4-.2-.2 1.6-9.2 2.5-12.7 1.9-7.2 3.3-13.7 4-19 .2-2.2.7-5.6 1.1-7.5.3-1.9.7-4.2.8-5 .1-.8.5-3.1.8-5 .8-3.8 1.2-8.5 2.7-29.5 1-14.3 1.4-573.1.4-579-1-5.9-1.2-7-1.4-7-.1 0-.3-.5-1.3-4.5-1.9-7.4-9.7-21.5-16.2-29.2-11.2-13.4-28.8-24.2-46-28.4-2.8-.7-5.6-1.3-8.6-1.8-1.9-.3-4.5-.8-5.9-1.1-1.4-.3-4.1-.8-6-1.1-1.9-.3-4.6-.7-6-.9-1.4-.2-4.5-.7-7-1-7.3-.9-10.3-1.4-13.5-1.9-4.6-.8-9.6-1.6-14.5-2.2-2.5-.3-5.6-.7-7-.8-1.4-.2-6.1-.7-10.5-1.1-4.4-.4-11.6-1-16-1.5-4.4-.4 59.4-.8 141.7-.9L704 164l-.6 3.7z"/><path d="M125.8 390.4c-10 4.1-16.2 10.8-19.7 21.4-2.1 6.2-2.1 7-1.9 104l.3 97.7 2.6 5.6c5.4 11.4 14.3 18.1 26.5 19.9 9.7 1.4 366.1 1.4 373.7 0 12.4-2.3 21.3-8.7 26.3-18.8l2.9-5.7.3-97.5c.2-69.4 0-99-.8-102.7-2.4-10.9-11.8-20.9-23.1-24.4-5.9-1.8-12-1.9-193.7-1.9H131.5l-5.7 2.4zm197 1.6c207.4.1 190-.6 199.3 7.7 6.3 5.8 9.9 11.8 10.7 18.5.4 2.9.7 46.9.7 97.8 0 89.8-.1 92.7-2 98.5-2.8 8.4-10.6 16.2-19 19-5.9 2-8.7 2-193 2-102.8 0-188.1-.3-189.3-.7-7.4-2.2-15.1-9-19.4-17.1l-2.3-4.2-.2-98c-.3-111.3-.9-103.3 8.1-113.3 5.8-6.3 16.3-11.8 20.4-10.6.7.2 84.4.4 186 .4zM128.1 672c-9.7 3.5-15.7 9.6-19.2 19.6-1.9 5.2-2 7.7-1.7 28.8.3 21.7.4 23.4 2.7 28.3 1.3 3 4.5 7.3 7.6 10.2 9 8.5 5.7 8.2 86.1 7.9 69.4-.3 69.9-.3 73.9-2.5 5.1-2.7 11.1-8.7 13.6-13.4 1-2 2.3-6.5 2.9-10 1.3-8.4 1.3-36-.1-43.4-2.1-11.5-8.6-20.1-18.7-24.8-4.7-2.2-5.1-2.2-73.2-2.4-65.6-.2-68.7-.2-73.9 1.7zm145.5 5c7.1 3.7 14.9 12.3 16.1 17.8.9 4.1 1.1 45.8.2 48.2-3.7 10.3-9.5 16.1-19.9 19.9-.8.3-32.1.6-69.5.6h-68l-4.5-2.4c-6.4-3.3-11.8-8.8-14.6-14.6-2.3-4.8-2.4-5.9-2.4-27.1 0-16.2.3-22.4 1.3-23.3 1-1.1.9-1.2-.3-.6-1.1.6-1 .3.3-1.2.9-1.1 1.4-2.3 1-2.6-.3-.4-.1-.7.5-.7s.9-.7.6-1.5c-.8-2.1 9.7-12.4 13.6-13.1 1.7-.4 3.3-1.1 3.6-1.5.3-.5 30.9-.9 68.3-.9h67.7l6 3zM371 670.9c-8.8 2.7-16.5 9.5-20.4 18-2 4.3-2.1 6.2-2.1 29.1l.1 24.5 3 6.5c3.6 7.6 9 12.9 16 15.6 4.6 1.8 8.6 1.9 75.4 1.9h70.5l5.1-2.7c6-3.2 11.8-9.3 14.7-15.6 2-4.4 2.1-6.3 2.2-29.2 0-24.3 0-24.5-2.6-30-3.7-8-7.2-11.5-14.7-15.2l-6.7-3.3-69-.2c-37.9-.1-70.1.2-71.5.6zm144.6 6.1c7.3 3.5 11.6 8.2 14.4 15.8 1.8 4.6 2 7.8 2 25.6 0 15-.4 21.5-1.5 25.3-2 6.7-8.3 13.8-15.4 17.1l-5.6 2.7h-136l-5-2.9c-7.1-4.1-9.3-6.3-12.9-13.1l-3.1-6-.3-21.8c-.4-25.4.3-28.7 7.4-36.6 3.8-4.2 9.7-7.8 14.2-8.7.8-.1 1.5-.4 1.7-.6.2-.2 30.4-.2 67.1 0l66.7.2 6.3 3zM750 607.8c-5.7 2.8-8.3 9.4-8.4 20.6 0 14.2 4.4 20.6 14.2 20.6 8.5 0 14.2-5.6 14.2-14 0-11.6-12.5-17.9-21.5-10.8l-2.6 2.1.6-3.9c1.5-8.4 6.8-13.5 12.3-11.6 1.5.4 3.3 2.1 4 3.5.9 1.8 2.1 2.7 3.8 2.7 2.8 0 2.8 0 1-4.5-2.6-6.1-10.6-8.3-17.6-4.7zm11.9 20.1c2.7 2.7 3.6 8.3 1.9 11.8-2.6 5.5-10.4 6.7-14.4 2.1-2.8-3-2.5-10 .5-13.2 3.1-3.3 9.1-3.6 12-.7zM785.4 607.5c-5.6 2.9-6.9 6.5-6.9 20s1.2 17.3 6.5 20c3.7 1.9 10.3 1.9 13.9 0 5-2.5 6.6-7.5 6.6-20 0-11.6-1-14.9-5.4-18.9-2.8-2.5-10.7-3.1-14.7-1.1zm11.9 5.4c4.9 4.7 4.3 25.3-.8 29.8-2.9 2.6-4.3 2.8-7.9 1.2-3.7-1.7-5.1-6.2-5.1-16.9 0-7.6.4-10.2 1.8-12.3 3.1-4.8 8.1-5.5 12-1.8zM823.7 619c-3 2.4-3.7 2.5-3.7.5 0-.8-.9-1.5-2-1.5-1.9 0-2 .7-2 15v15h5v-10.4c0-12.1.3-13.2 4.1-15.1 3.8-2 5.5-1.9 7.9.5 1.8 1.8 2 3.3 2 13.5V648h5v-11.4c0-11.2.1-11.5 2.6-13.5 3.4-2.6 6.8-2.7 9.4-.1 1.8 1.8 2 3.3 2 13.5V648h5v-11.4c0-12.8-1-16.8-4.6-18.5-4-1.8-9.8-1.3-12.7 1l-2.7 2-2.2-2c-2.9-2.8-9.6-2.8-13.1-.1zM877.7 619c-3 2.4-3.7 2.5-3.7.5 0-.8-.9-1.5-2-1.5-1.9 0-2 .7-2 15v15h5v-10.4c0-12.1.3-13.2 4.1-15.1 3.8-2 5.5-1.9 7.9.5 1.8 1.8 2 3.3 2 13.5V648h5v-11.4c0-11.2.1-11.5 2.6-13.5 3.4-2.6 6.8-2.7 9.4-.1 1.8 1.8 2 3.3 2 13.5V648h5v-11.4c0-12.8-1-16.8-4.6-18.5-4-1.8-9.8-1.3-12.7 1l-2.7 2-2.2-2c-2.9-2.8-9.6-2.8-13.1-.1z"/></svg>