<svg version="1" xmlns="http://www.w3.org/2000/svg" width="auto" height="auto" fill="#FFF" viewBox="0 0 685.984 210"><path d="M97.879 19.707c-23.563 0-42.667 19.103-42.667 42.667v15.953c-8.269 1.479-16.614 3.522-16.614 6.133v83.586s0 2.344 2.553 3.359c9.427 3.751 46.438 16.869 54.932 19.873 1.119.396 1.355.385 1.743.385.408 0 .619.014 1.729-.379 8.478-2.997 45.617-16.148 54.985-19.857 2.433-.963 2.503-3.347 2.503-3.347V84.464c0-2.61-8.229-4.658-16.499-6.138V62.373c.001-23.563-19.102-42.666-42.665-42.666zm0 20.391c13.86 0 22.292 8.416 22.292 22.276v13.898c-15.649-1.14-28.947-1.14-44.598 0V62.374c0-13.861 8.444-22.276 22.306-22.276zm-.055 56.692c19.389.031 35.688 1.475 35.688 4.235v52.08c0 .76-.12.888-.841 1.161-.72.274-33.149 11.993-33.149 11.993s-1.331.442-1.697.442c-.415 0-1.747-.46-1.747-.46s-32.415-11.708-33.143-11.983c-.729-.274-.823-.416-.823-1.182v-52.053c0-2.835 16.324-4.264 35.712-4.233zM212.007 153.84V96.777h-20.8V76.324h64.964v20.453h-20.688v57.063h-23.476zM308.818 153.84l-10.69-24.405h-8.485v24.405H266.17V76.324h41.37c18.128 0 27.893 12.086 27.893 26.612 0 13.368-7.787 20.454-13.945 23.476l14.063 27.427h-26.731zm2.788-51.021c0-4.182-3.718-6.044-7.67-6.044H289.64v12.203h14.296c3.952-.001 7.67-1.857 7.67-6.16zM347.726 153.84V76.324h58.805v20.453H371.2v7.671h34.517v20.456h-34.517v8.48h35.33v20.456h-58.805zM418.753 153.854V135.26l29.516-38.468h-29.516V76.34h60.546v18.477l-29.635 38.584h30.447v20.453h-61.358zM485.861 115.156c0-23.825 18.476-40.095 42.417-40.095 23.938 0 42.42 16.27 42.42 40.095 0 23.823-18.482 40.092-42.42 40.092-23.941 0-42.417-16.27-42.417-40.092zm61.012 0c0-10.81-7.32-19.409-18.595-19.409-11.272 0-18.596 8.6-18.596 19.41 0 10.806 7.322 19.404 18.596 19.404 11.272 0 18.595-8.6 18.595-19.405zM623.345 153.854l-10.687-24.404h-8.486v24.404h-23.477V76.34h41.374c18.131 0 27.894 12.085 27.894 26.61 0 13.369-7.789 20.455-13.949 23.479l14.062 27.426h-26.731zm2.79-51.02c0-4.182-3.717-6.043-7.67-6.043H604.17v12.202h14.295c3.95 0 7.67-1.856 7.67-6.16z"/></svg>